# xmcd
#
# Track frame offsets:
#	300
#	30681
#	58791
#
# Disc length: 1159 seconds
#
# Revision: 1
# Processed by: cddbd v1.5.1PL0 Copyright (c) Steve Scherf et al.
# Submitted via: EasyCDDAExtractor 7.1.0.1
#
DISCID=23048303
DTITLE=Various Artist - Handful of Aces
DYEAR=2004
DGENRE=Blues
TTITLE0=Mysterious Ways - Just can't let you go
TTITLE1=Mysterious Ways - Rainy night in Memphis
TTITLE2=Arttu the Ace feat. Welkku - Elli
EXTD=YEAR: 2000\n
EXTT0=
EXTT1=
EXTT2=
PLAYORDER=
